<mxfile host="65bd71144e" pages="1">
    <diagram id="0MqRuAryd6gaNtWOwecn" name="Page-1">
        <mxGraphModel dx="1082" dy="787" grid="0" gridSize="10" guides="1" tooltips="1" connect="1" arrows="1" fold="1" page="1" pageScale="1" pageWidth="827" pageHeight="1169" math="0" shadow="0">
            <root>
                <mxCell id="0"/>
                <mxCell id="1" parent="0"/>
                <mxCell id="lunRP_2s2cViU5oACqbx-15" value="" style="html=1;" parent="1" vertex="1">
                    <mxGeometry x="486" y="212.5" width="179" height="136" as="geometry"/>
                </mxCell>
                <mxCell id="lunRP_2s2cViU5oACqbx-16" value="" style="shape=component;jettyWidth=8;jettyHeight=4;" parent="lunRP_2s2cViU5oACqbx-15" vertex="1">
                    <mxGeometry x="1" width="20" height="20" relative="1" as="geometry">
                        <mxPoint x="-27" y="7" as="offset"/>
                    </mxGeometry>
                </mxCell>
                <mxCell id="lunRP_2s2cViU5oACqbx-17" value="" style="html=1;" parent="1" vertex="1">
                    <mxGeometry x="486" y="388" width="179" height="136" as="geometry"/>
                </mxCell>
                <mxCell id="lunRP_2s2cViU5oACqbx-18" value="" style="shape=component;jettyWidth=8;jettyHeight=4;" parent="lunRP_2s2cViU5oACqbx-17" vertex="1">
                    <mxGeometry x="1" width="20" height="20" relative="1" as="geometry">
                        <mxPoint x="-27" y="7" as="offset"/>
                    </mxGeometry>
                </mxCell>
                <mxCell id="lunRP_2s2cViU5oACqbx-13" value="" style="html=1;" parent="1" vertex="1">
                    <mxGeometry x="486" y="32" width="179" height="136" as="geometry"/>
                </mxCell>
                <mxCell id="lunRP_2s2cViU5oACqbx-14" value="" style="shape=component;jettyWidth=8;jettyHeight=4;" parent="lunRP_2s2cViU5oACqbx-13" vertex="1">
                    <mxGeometry x="1" width="20" height="20" relative="1" as="geometry">
                        <mxPoint x="-27" y="7" as="offset"/>
                    </mxGeometry>
                </mxCell>
                <mxCell id="lunRP_2s2cViU5oACqbx-11" value="" style="html=1;" parent="1" vertex="1">
                    <mxGeometry x="15" y="15" width="353" height="167" as="geometry"/>
                </mxCell>
                <mxCell id="lunRP_2s2cViU5oACqbx-12" value="" style="shape=component;jettyWidth=8;jettyHeight=4;" parent="lunRP_2s2cViU5oACqbx-11" vertex="1">
                    <mxGeometry x="1" width="20" height="20" relative="1" as="geometry">
                        <mxPoint x="-27" y="7" as="offset"/>
                    </mxGeometry>
                </mxCell>
                <mxCell id="lunRP_2s2cViU5oACqbx-9" value="" style="html=1;" parent="1" vertex="1">
                    <mxGeometry x="15" y="231" width="353" height="278" as="geometry"/>
                </mxCell>
                <mxCell id="lunRP_2s2cViU5oACqbx-10" value="" style="shape=component;jettyWidth=8;jettyHeight=4;" parent="lunRP_2s2cViU5oACqbx-9" vertex="1">
                    <mxGeometry x="1" width="20" height="20" relative="1" as="geometry">
                        <mxPoint x="-27" y="7" as="offset"/>
                    </mxGeometry>
                </mxCell>
                <mxCell id="lunRP_2s2cViU5oACqbx-1" value="ClientAuth" style="strokeWidth=2;rounded=1;arcSize=10;whiteSpace=wrap;html=1;align=center;fontSize=14;" parent="1" vertex="1">
                    <mxGeometry x="244" y="260" width="100" height="100" as="geometry"/>
                </mxCell>
                <mxCell id="lunRP_2s2cViU5oACqbx-2" value="Group" style="strokeWidth=2;rounded=1;arcSize=10;whiteSpace=wrap;html=1;align=center;fontSize=14;" parent="1" vertex="1">
                    <mxGeometry x="38" y="388" width="148" height="102" as="geometry"/>
                </mxCell>
                <mxCell id="lunRP_2s2cViU5oACqbx-3" value="Auth" style="strokeWidth=2;rounded=1;arcSize=10;whiteSpace=wrap;html=1;align=center;fontSize=14;" parent="1" vertex="1">
                    <mxGeometry x="64" y="259" width="122" height="102" as="geometry"/>
                </mxCell>
                <mxCell id="lunRP_2s2cViU5oACqbx-4" value="Login" style="strokeWidth=2;rounded=1;arcSize=10;whiteSpace=wrap;html=1;align=center;fontSize=14;" parent="1" vertex="1">
                    <mxGeometry x="518" y="49" width="100" height="100" as="geometry"/>
                </mxCell>
                <mxCell id="lunRP_2s2cViU5oACqbx-5" value="member" style="strokeWidth=2;rounded=1;arcSize=10;whiteSpace=wrap;html=1;align=center;fontSize=14;" parent="1" vertex="1">
                    <mxGeometry x="244" y="49" width="100" height="100" as="geometry"/>
                </mxCell>
                <mxCell id="lunRP_2s2cViU5oACqbx-6" value="Auth" style="strokeWidth=2;rounded=1;arcSize=10;whiteSpace=wrap;html=1;align=center;fontSize=14;" parent="1" vertex="1">
                    <mxGeometry x="48" y="49" width="138" height="102" as="geometry"/>
                </mxCell>
                <mxCell id="lunRP_2s2cViU5oACqbx-7" value="member" style="strokeWidth=2;rounded=1;arcSize=10;whiteSpace=wrap;html=1;align=center;fontSize=14;" parent="1" vertex="1">
                    <mxGeometry x="518" y="231" width="100" height="100" as="geometry"/>
                </mxCell>
                <mxCell id="lunRP_2s2cViU5oACqbx-8" value="client" style="strokeWidth=2;rounded=1;arcSize=10;whiteSpace=wrap;html=1;align=center;fontSize=14;" parent="1" vertex="1">
                    <mxGeometry x="518" y="412" width="100" height="100" as="geometry"/>
                </mxCell>
                <mxCell id="lunRP_2s2cViU5oACqbx-19" value="content" style="endArrow=block;endFill=1;html=1;edgeStyle=orthogonalEdgeStyle;align=right;verticalAlign=top;strokeWidth=2;labelPosition=left;verticalLabelPosition=bottom;" parent="1" edge="1">
                    <mxGeometry x="-1" relative="1" as="geometry">
                        <mxPoint x="235" y="107" as="sourcePoint"/>
                        <mxPoint x="191.5" y="107" as="targetPoint"/>
                    </mxGeometry>
                </mxCell>
                <mxCell id="lunRP_2s2cViU5oACqbx-20" value="1" style="resizable=0;html=1;align=left;verticalAlign=bottom;labelBackgroundColor=#ffffff;fontSize=10;" parent="lunRP_2s2cViU5oACqbx-19" connectable="0" vertex="1">
                    <mxGeometry x="-1" relative="1" as="geometry">
                        <mxPoint x="-41" y="-7" as="offset"/>
                    </mxGeometry>
                </mxCell>
                <mxCell id="lunRP_2s2cViU5oACqbx-22" value="content" style="endArrow=block;endFill=1;html=1;edgeStyle=orthogonalEdgeStyle;align=right;verticalAlign=top;strokeWidth=2;labelPosition=left;verticalLabelPosition=bottom;" parent="1" edge="1">
                    <mxGeometry x="-1" relative="1" as="geometry">
                        <mxPoint x="234" y="317" as="sourcePoint"/>
                        <mxPoint x="190.5" y="317" as="targetPoint"/>
                    </mxGeometry>
                </mxCell>
                <mxCell id="lunRP_2s2cViU5oACqbx-23" value="1" style="resizable=0;html=1;align=left;verticalAlign=bottom;labelBackgroundColor=#ffffff;fontSize=10;" parent="lunRP_2s2cViU5oACqbx-22" connectable="0" vertex="1">
                    <mxGeometry x="-1" relative="1" as="geometry">
                        <mxPoint x="-41" y="-7" as="offset"/>
                    </mxGeometry>
                </mxCell>
                <mxCell id="lunRP_2s2cViU5oACqbx-24" value="attachedLabels" style="endArrow=block;endFill=1;html=1;edgeStyle=orthogonalEdgeStyle;align=right;verticalAlign=top;strokeWidth=2;exitX=0.25;exitY=1;exitDx=0;exitDy=0;entryX=1;entryY=0.431;entryDx=0;entryDy=0;entryPerimeter=0;labelPosition=left;verticalLabelPosition=bottom;" parent="1" source="lunRP_2s2cViU5oACqbx-1" target="lunRP_2s2cViU5oACqbx-2" edge="1">
                    <mxGeometry x="-1" relative="1" as="geometry">
                        <mxPoint x="219" y="528" as="sourcePoint"/>
                        <mxPoint x="175.5" y="528" as="targetPoint"/>
                    </mxGeometry>
                </mxCell>
                <mxCell id="lunRP_2s2cViU5oACqbx-25" value="N" style="resizable=0;html=1;align=left;verticalAlign=bottom;labelBackgroundColor=#ffffff;fontSize=10;" parent="lunRP_2s2cViU5oACqbx-24" connectable="0" vertex="1">
                    <mxGeometry x="-1" relative="1" as="geometry">
                        <mxPoint x="-77" y="64" as="offset"/>
                    </mxGeometry>
                </mxCell>
                <mxCell id="lunRP_2s2cViU5oACqbx-26" value="repoId" style="endArrow=open;endFill=0;html=1;edgeStyle=orthogonalEdgeStyle;align=left;verticalAlign=top;strokeWidth=1;dashed=1;strokeColor=#000000;labelPosition=right;verticalLabelPosition=bottom;" parent="1" edge="1">
                    <mxGeometry x="-1" relative="1" as="geometry">
                        <mxPoint x="344" y="316" as="sourcePoint"/>
                        <mxPoint x="483" y="316" as="targetPoint"/>
                    </mxGeometry>
                </mxCell>
                <mxCell id="lunRP_2s2cViU5oACqbx-28" value="createdBy" style="endArrow=open;endFill=0;html=1;edgeStyle=orthogonalEdgeStyle;align=left;verticalAlign=top;strokeWidth=1;dashed=1;strokeColor=#000000;labelPosition=right;verticalLabelPosition=bottom;entryX=0;entryY=0.5;entryDx=0;entryDy=0;" parent="1" target="lunRP_2s2cViU5oACqbx-13" edge="1">
                    <mxGeometry x="-1" relative="1" as="geometry">
                        <mxPoint x="349" y="273" as="sourcePoint"/>
                        <mxPoint x="554" y="173" as="targetPoint"/>
                    </mxGeometry>
                </mxCell>
                <mxCell id="lunRP_2s2cViU5oACqbx-29" value="createdBy" style="endArrow=open;endFill=0;html=1;edgeStyle=orthogonalEdgeStyle;align=left;verticalAlign=top;strokeWidth=1;dashed=1;strokeColor=#000000;labelPosition=right;verticalLabelPosition=bottom;" parent="1" edge="1">
                    <mxGeometry x="-1" relative="1" as="geometry">
                        <mxPoint x="347" y="74" as="sourcePoint"/>
                        <mxPoint x="486" y="74" as="targetPoint"/>
                    </mxGeometry>
                </mxCell>
                <mxCell id="lunRP_2s2cViU5oACqbx-30" value="issueId" style="endArrow=open;endFill=0;html=1;edgeStyle=orthogonalEdgeStyle;align=right;verticalAlign=top;strokeWidth=1;dashed=1;strokeColor=#000000;labelPosition=left;verticalLabelPosition=bottom;" parent="1" edge="1">
                    <mxGeometry x="-1" relative="1" as="geometry">
                        <mxPoint x="294" y="156" as="sourcePoint"/>
                        <mxPoint x="294" y="222" as="targetPoint"/>
                    </mxGeometry>
                </mxCell>
                <mxCell id="lunRP_2s2cViU5oACqbx-31" value="labelId" style="endArrow=open;endFill=0;html=1;edgeStyle=orthogonalEdgeStyle;align=right;verticalAlign=top;strokeWidth=1;dashed=1;strokeColor=#000000;labelPosition=left;verticalLabelPosition=bottom;exitX=0.689;exitY=1.01;exitDx=0;exitDy=0;exitPerimeter=0;entryX=0.25;entryY=1;entryDx=0;entryDy=0;" parent="1" source="lunRP_2s2cViU5oACqbx-2" target="lunRP_2s2cViU5oACqbx-17" edge="1">
                    <mxGeometry x="-1" relative="1" as="geometry">
                        <mxPoint x="306" y="610" as="sourcePoint"/>
                        <mxPoint x="445" y="610" as="targetPoint"/>
                        <Array as="points">
                            <mxPoint x="140" y="548"/>
                            <mxPoint x="531" y="548"/>
                        </Array>
                    </mxGeometry>
                </mxCell>
                <mxCell id="lunRP_2s2cViU5oACqbx-32" value="repoId" style="endArrow=open;endFill=0;html=1;edgeStyle=orthogonalEdgeStyle;align=left;verticalAlign=bottom;strokeWidth=1;dashed=1;strokeColor=#000000;labelPosition=right;verticalLabelPosition=top;exitX=0.5;exitY=0;exitDx=0;exitDy=0;" parent="1" edge="1">
                    <mxGeometry x="-1" relative="1" as="geometry">
                        <mxPoint x="568" y="408" as="sourcePoint"/>
                        <mxPoint x="568" y="354" as="targetPoint"/>
                    </mxGeometry>
                </mxCell>
                <mxCell id="lunRP_2s2cViU5oACqbx-34" value="createdBy" style="endArrow=open;endFill=0;html=1;edgeStyle=orthogonalEdgeStyle;align=left;verticalAlign=bottom;strokeWidth=1;dashed=1;strokeColor=#000000;labelPosition=right;verticalLabelPosition=top;" parent="1" edge="1">
                    <mxGeometry x="-1" relative="1" as="geometry">
                        <mxPoint x="568" y="226" as="sourcePoint"/>
                        <mxPoint x="568" y="159.5" as="targetPoint"/>
                    </mxGeometry>
                </mxCell>
            </root>
        </mxGraphModel>
    </diagram>
</mxfile>